<?xml version="1.0" encoding="utf-8"?>
<!-- Generator: Adobe Illustrator 23.0.1, SVG Export Plug-In . SVG Version: 6.00 Build 0)  -->
<svg version="1.1" id="Warstwa_1" xmlns="http://www.w3.org/2000/svg" xmlns:xlink="http://www.w3.org/1999/xlink" x="0px" y="0px"
	 viewBox="0 0 918 158" style="enable-background:new 0 0 918 158;" xml:space="preserve">
<style type="text/css">
	.st0{fill:#D4145A;}
	.st1{font-family:'LightBeachRegular';}
	.st2{font-size:114.1859px;}
</style>
<path class="st0" d="M76.94,194.11c3.74-3.9,7.87-6.22,13.31-4.58c3.74,1.12,6.23,3.56,7.64,7.41c-2.78-0.56-5.37-1.08-8.17-1.64
	c0.28,0.83,0.49,1.49,0.65,1.95c5.38,1.19,10.74,2.22,15.99,3.63c2.33,0.62,4.52,1.89,6.62,3.14c1.1,0.66,1.85,1.9,3.04,3.19
	c-3.32-0.93-6.1-1.72-9.29-2.61c0.5,1.13,0.78,1.75,1.3,2.91c-4.12-1.5-7.82-2.86-11.68-4.26c0.59,0.95,1.13,1.82,1.67,2.69
	c-3.75-1.59-7.6-2.04-11.88-1.86c3.01,1.18,5.8,2.13,8.45,3.36c2.64,1.23,5.15,2.74,7.72,4.12c-0.05,0.13-0.1,0.27-0.15,0.4
	c-0.75,0-1.5,0-2.34,0c1.86,1.55,3.62,3.02,5.38,4.48c-0.07,0.1-0.14,0.2-0.21,0.3c-0.51-0.07-1.02-0.14-1.82-0.26
	c3.52,4.19,5.42,8.95,7.4,13.94c-5.2-2.36-9.99-4.91-14.08-8.98c-0.19,1.02-0.31,1.68-0.44,2.43c-3.18-1.75-4.38-5.07-6.48-7.62
	c-0.13,0.05-0.26,0.1-0.39,0.15c0.25,1.25,0.49,2.5,0.74,3.75c-0.09,0.04-0.18,0.09-0.27,0.13c-0.84-1.49-1.67-2.99-2.59-4.62
	c-0.2,0.43-0.37,0.8-0.46,1c-1.38-1.9-2.82-3.87-4.26-5.84c-0.07,0.05-0.15,0.11-0.22,0.16c2.19,5.09,4.39,10.17,6.75,15.65
	c-0.84-0.33-1.27-0.51-1.56-0.62c0.61,2.43,1.22,4.85,1.83,7.28c-0.15,0.05-0.31,0.1-0.46,0.14c-0.29-0.54-0.58-1.08-1.04-1.93
	c-1.48,3.25,0.41,6.34-0.52,9.46c-0.07-0.33-0.16-0.68-0.24-1.03c-0.2,0.1-0.41,0.19-0.61,0.29c0.12,2.36,0.24,4.72,0.38,7.42
	c-3.46-2.31-3.98-5.86-4.96-9.28c-0.09,0.68-0.19,1.36-0.32,2.34c-2.69-3.44-3.28-7.21-3.4-11.56c-0.46,1.17-0.77,1.97-1.23,3.13
	c-2.07-4.27-2.07-8.58-2.39-13.15c-0.62,0.79-1.06,1.35-1.74,2.21c-0.2-1.51-0.36-2.73-0.52-3.94c-0.13-0.03-0.27-0.05-0.4-0.08
	c-1.28,7.04-2.57,14.08-3.84,21.08c2.63,0.94,4.92,1.77,7.22,2.59c-0.01,0.1-0.02,0.19-0.02,0.29c-1.48,0.13-2.96,0.27-4.53,0.41
	c0.19,0.44,0.34,0.79,0.57,1.33c-0.68-0.19-1.13-0.3-1.58-0.44c-1.32-0.4-1.93,0.02-2.06,1.45c-0.07,0.73-0.07,1.48-0.11,2.34
	c3.89-0.61,6.41,1.21,8.2,4.45c6.76-2.9,13.4-4.77,19.14,2.26c-1.49,0.29-2.84,0.55-4.2,0.81c0.03,0.18,0.07,0.35,0.1,0.53
	c-1.48-0.73-2.96-1.46-3.78-1.87c-2.04,0.38-3.51,0.66-4.98,0.93c-0.01,0.15-0.01,0.29-0.02,0.44c6.87,0.45,13.44,1.89,19.57,5.91
	c-1.43-0.08-2.55-0.14-3.75-0.21c0,0.33,0,0.6,0,1.23c-3.04-0.86-5.91-1.68-8.86-2.52c-0.05,0.19-0.15,0.58-0.23,0.93
	c-2.54-0.38-5.06-0.76-7.57-1.14c-0.05,0.19-0.11,0.38-0.16,0.58c1.42,1.08,2.84,2.16,4.46,3.38c-0.6,0.1-0.94,0.15-1.36,0.22
	c1.23,1.12,2.42,2.22,3.84,3.52c-0.65,0.15-1.01,0.23-1.5,0.34c0.34,0.95,0.74,1.82,0.96,2.73c0.34,1.39,0.64,2.79,0.78,4.21
	c0.08,0.79,0.19,1.28,1.05,1.47c11.27,2.52,22.53,5.41,34.21,4.56c10.37-0.75,20.6-2.44,30.55-5.59c1.75-0.56,3.42-0.96,3.68-3.22
	c-0.13-0.02-0.4-0.05-0.89-0.11c0.93-1.06,1.76-2.01,2.64-3.01c-0.32,0-0.66,0-1.06,0c0.33-1.09,2.12-1.26,1.81-3.01
	c-0.8,0.72-1.42,1.29-2.35,2.12c0.36-0.89,0.57-1.4,0.88-2.19c-1.75,1.25-3.27,2.32-5.03,3.57c-0.09-0.73-0.14-1.1-0.17-1.36
	c-3.05,0.83-6.1,1.66-9.15,2.5c-0.11-0.18-0.22-0.36-0.32-0.54c2.05-2.14,4.1-4.28,6.13-6.39c0.02,0.01-0.19-0.12-0.61-0.4
	c1.22-0.55,2.31-1.04,3.56-1.59c-0.37-0.18-0.62-0.3-0.88-0.43c-0.02-0.14-0.05-0.28-0.07-0.41c3.2-0.5,6.41-1,9.61-1.5
	c0.02-0.1,0.03-0.19,0.05-0.29c-1.97-0.24-3.95-0.48-5.98-0.73c0.16-0.24,0.39-0.59,0.72-1.09c-2.28,0.13-4.44,0.25-6.81,0.39
	c0.23-0.51,0.38-0.84,0.62-1.37c-1.74,0-3.35,0-4.96,0c-0.06-0.2-0.11-0.4-0.17-0.6c1.18-0.44,2.36-1.25,3.54-1.25
	c3.83-0.02,7.67,0.21,11.5,0.44c0.89,0.05,1.47,0.07,1.48-1.05c-1.46-0.16-2.92-0.33-4.42-0.49c1.36-2.41,3.83-3.3,7.24-2.55
	c0.26-2.21,0.51-4.41,0.82-7.01c-0.58,0.51-0.82,0.72-1.09,0.96c-0.64-3.07,1.2-6.06,0.13-9.45c-0.52,0.81-0.84,1.31-1.16,1.81
	c-0.17-0.06-0.33-0.12-0.5-0.18c0.74-2.37,1.49-4.73,2.23-7.09c-0.27,0.09-0.74,0.25-1.69,0.56c2.6-5.26,5.03-10.16,7.46-15.07
	c-0.07-0.07-0.13-0.15-0.2-0.22c-1.46,1.76-2.93,3.52-4.42,5.31c-0.09-0.22-0.21-0.53-0.36-0.92c-1.01,1.59-1.98,3.14-2.96,4.68
	c-0.08-0.04-0.16-0.08-0.23-0.11c0.36-1.37,0.72-2.75,1.08-4.12c-2.59,2.28-3.97,5.67-7.3,7.29c-0.11-0.68-0.21-1.33-0.29-1.81
	c-4.71,2.62-9.42,5.25-14.34,7.98c0.31-2.77,4.4-9.84,7.93-13.96c-0.7,0.08-1.29,0.15-1.89,0.22c-0.07-0.12-0.15-0.24-0.22-0.36
	c1.84-1.36,3.68-2.72,5.56-4.12c-0.71,0-1.43,0-2.14,0c-0.05-0.12-0.11-0.24-0.16-0.36c1.19-0.68,2.35-1.41,3.57-2.03
	c1.33-0.67,2.71-1.28,4.09-1.84c1.34-0.54,2.7-1.03,4.07-1.48c1.36-0.45,2.75-0.81,4.22-1.24c-2.28-0.96-7.57-0.35-11.72,1.44
	c0.81-1.21,1.41-2.1,2.04-3.05c-3.83,1.18-7.63,2.34-11.82,3.63c0.49-1.05,0.78-1.67,1.32-2.82c-3.15,0.71-5.91,1.33-8.66,1.95
	c-0.1-0.06-0.2-0.13-0.31-0.19c1.07-1.01,1.97-2.4,3.24-2.94c3.07-1.31,6.25-2.52,9.5-3.23c4.17-0.91,8.45-1.3,12.88-1.94
	c0.23-0.46,0.55-1.11,1.02-2.07c-2.88,0.42-5.52,0.81-8.17,1.21c1-3.88,5.27-7.07,9.75-7.29c4.26-0.21,6.36,0.81,11,5.29
	c2.77-1.64,5.43-3.43,8.27-4.84c3.56-1.76,7.36-2.96,11.41-2.86c4.72,0.12,8.52,2.52,12.58,5.4c-2.45,0.8-4.59,1.49-6.82,2.22
	c0.15,0.26,0.39,0.69,0.83,1.47c-3.27-0.93-6.26-1.78-9.4-2.67c0.34,0.47,0.61,0.86,0.92,1.28c-2.07,1.59-5.37,0.34-7.1,3.25
	c11.73-1.63,23.13-1.31,34.44,3.21c-2.39,0.32-4.47,0.6-6.73,0.9c0.43,0.59,0.75,1.04,1.32,1.82c-1.74-0.36-3.14-0.66-4.93-1.03
	c0.62,0.57,0.94,0.87,1.27,1.17c-0.04,0.11-0.09,0.22-0.13,0.34c-3.3-0.55-6.63-1-9.91-1.68c-2.36-0.49-2.42-0.55-1.91,2.13
	c-2.34-0.2-4.6-0.62-6.83-0.51c-2.19,0.11-4.35,0.76-6.54,1.51c2.86,1.36,5.71,2.73,8.57,4.09c-0.03,0.12-0.07,0.23-0.1,0.35
	c-0.7,0.16-1.4,0.33-2.07,0.48c2.46,1.5,4.95,3.01,7.44,4.52c-0.07,0.16-0.15,0.32-0.22,0.48c-0.64,0.11-1.28,0.21-2.16,0.36
	c2.56,4.34,5.71,8.21,5.6,13.57c-1.82-1.32-3.58-2.59-5.4-3.91c0,0.26,0,0.55,0,1.04c-2.1-2.27-3.53-4.92-6.34-6.35
	c-0.42,1.2-0.79,2.28-1.27,3.67c-1.2-2.48-2.03-4.76-3.33-6.71c-1.32-1.97-3.13-3.62-4.98-5.28c1.63,7.02,3.26,14.03,4.91,21.15
	c5.35-0.65,10.36,0.78,15.28,3.4c2.22-3.74,5.24-6.17,9.92-5.48c2.42,0.36,4.59,1.88,5.78,4.15c-2.03,0-3.96,0-5.96,0
	c0.32,1.32,0.95,1.49,2.09,1.48c4.54-0.05,9.08-0.02,13.61,0.22c1.9,0.1,3.73,0.87,4.96,2.65c-2.19-0.12-4.27-0.24-6.64-0.37
	c0.41,0.72,0.66,1.15,1.1,1.92c-3.08-0.38-5.85-0.73-8.86-1.1c0.54,0.66,0.94,1.17,1.17,1.45c-2.58,0.11-5.26,0.23-7.94,0.35
	c0,0.12,0.01,0.25,0.01,0.37c4.06,0.88,8.12,1.76,12.18,2.64c-0.02,0.19-0.04,0.38-0.06,0.57c-0.44,0.09-0.88,0.18-1.55,0.33
	c1.63,0.84,3.08,1.58,4.9,2.51c-0.77,0.15-1.13,0.21-1.24,0.23c2.37,2.78,4.83,5.66,7.29,8.54c-0.13,0.21-0.27,0.42-0.4,0.63
	c-3.78-1.28-7.55-2.56-11.33-3.84c-0.02,0.28-0.05,0.74-0.11,1.68c-2.15-1.71-4.03-3.21-6.31-5.02c0.54,1.22,0.9,2.03,1.25,2.83
	c-0.06,0.06-0.13,0.12-0.19,0.18c-0.82-0.89-1.64-1.78-2.55-2.76c-0.11,0.25-0.2,0.46-0.28,0.64c-1.15-1-2.3-2.02-3.46-3.03
	c-0.08,0.08-0.16,0.16-0.23,0.24c2.29,3.16,4.58,6.31,7.01,9.67c-0.63,0-0.96,0-1.18,0c0.79,1.45,1.57,2.88,2.35,4.31
	c-0.08,0.09-0.17,0.17-0.25,0.26c-0.27-0.11-0.55-0.23-1.12-0.47c0.16,0.93,0.23,1.69,0.42,2.43c0.3,1.19,1.28,2.62,0.9,3.49
	c-0.91,2.13,0.66,3.63,0.73,5.43c-1.8-0.1-2.78-1.21-4.97-5.77c0,0.66,0,1.16,0,1.87c-2.44-1.81-3.29-4.43-4.36-7.38
	c-0.16,0.89-0.25,1.37-0.38,2.09c-2.21-2.76-2.88-5.96-3.93-9.16c-0.63,0.71-1.17,1.31-1.83,2.05c-0.08-1.03-0.14-1.84-0.2-2.66
	c-0.12,9.52-1.02,18.97-2.62,28.33c-1.6,9.32-3.52,18.59-5.31,27.95c6.53,2.99,13.35,6.12,20.18,9.25c-0.05,0.13-0.1,0.27-0.15,0.4
	c-30.34-12.75-62.23-17.67-94.85-18.41c-32.7-0.74-64.81,2.99-95.86,14.02c2.42-1.09,4.83-2.22,7.28-3.25
	c2.51-1.06,5.05-2.05,7.6-3.01c2.55-0.96,5.12-1.83,7.78-2.78c-0.66-3.98-1.37-7.91-1.97-11.85c-2.12-13.94-3.44-27.93-3.01-42.06
	c0.02-0.65-0.33-1.32-0.74-1.96c-1.05,3.1-1.22,6.41-3.24,9.4c-0.21-0.69-0.35-1.16-0.62-2.06c-0.7,3.07-1.38,5.72-3.54,7.92
	c-0.09-0.59-0.16-1-0.28-1.75c-1.03,2.65-1.68,5.17-4.47,6.52c0.22-0.88,0.49-1.5,0.49-2.11c0-1.17,0.9-2.2-0.06-3.6
	c-0.52-0.76,0.3-2.44,0.48-3.7c0.11-0.8,0.15-1.6,0.22-2.4c-0.13-0.04-0.27-0.07-0.4-0.11c-0.25,0.3-0.5,0.6-0.76,0.9
	c-0.11-0.06-0.22-0.11-0.34-0.17c0.64-1.61,1.29-3.21,1.94-4.85c-0.14,0-0.46,0-1.07,0c2.07-3.57,4.08-7.05,6.1-10.54
	c-0.03-0.05-0.06-0.1-0.09-0.15c-0.63,0.56-1.3,1.09-1.88,1.7c-0.58,0.61-1.06,1.3-1.6,1.98c-0.11-0.28-0.21-0.52-0.32-0.81
	c-0.77,1.06-1.51,2.08-2.25,3.11c-0.07-0.03-0.14-0.06-0.21-0.09c0.26-0.87,0.52-1.74,0.9-3.02c-2.03,2.02-3.74,3.71-5.75,5.72
	c-0.15-1.05-0.22-1.54-0.25-1.81c-3.62,1.68-7.22,3.36-10.83,5.04c-0.13-0.14-0.26-0.29-0.39-0.43c1-1.64,1.92-3.34,3.01-4.92
	c1.09-1.57,2.34-3.03,3.49-4.5c-0.24-0.04-0.6-0.09-1.36-0.2c1.58-1.02,2.86-1.86,4.25-2.75c-0.39-0.15-0.79-0.3-1.36-0.52
	c3.85-2.14,7.94-3.19,12.11-4.03c-0.02-0.18-0.03-0.35-0.05-0.53c-2.78,0.14-5.55,0.28-8.26,0.42c0.18-0.26,0.55-0.79,1.08-1.57
	c-2.98,0.68-5.74,1.3-8.83,2c0.4-0.78,0.63-1.21,1.03-2c-2.35,0.34-4.42,0.63-6.48,0.93c-0.08-0.1-0.16-0.19-0.23-0.29
	c1-0.71,1.91-1.79,3.01-2.07c3.35-0.84,6.76-1.47,10.17-1.99c2.11-0.32,4.26-0.29,6.41-0.42c0.22-0.43,0.43-0.85,0.78-1.53
	c-2.14,0.16-4.11,0.31-6.1,0.45c1.21-3.04,4.3-4.98,7.79-4.95c2.67,0.02,3.8,0.68,7.95,4.62c6.9-3.89,13.8-7.35,21.53-2.14
	c2.06-7.09,4.1-14.15,6.19-21.34c-3.73,3.28-7.53,6.37-8.45,11.69c-0.21-0.04-0.42-0.09-0.62-0.13c-0.34-1.06-0.68-2.12-1.08-3.38
	c-2.92,1.1-4.4,3.84-6.6,5.94c0-0.38,0-0.68,0-1.02c-1.84,1.19-3.65,2.36-5.47,3.53c-0.17-0.1-0.35-0.2-0.52-0.29
	c0.84-2.25,1.49-4.6,2.59-6.73c1.09-2.11,2.63-4,4.08-6.15c-0.83-0.19-1.47-0.34-2.12-0.49c-0.07-0.14-0.15-0.28-0.22-0.43
	c2.58-1.4,5.16-2.8,7.72-4.19c-0.63-0.16-1.34-0.35-2.05-0.53c-0.06-0.13-0.11-0.25-0.17-0.38c2.89-1.21,5.78-2.42,9.06-3.79
	c-1.68-0.52-3.03-1.07-4.42-1.31c-1.45-0.26-2.95-0.26-4.43-0.31c-1.49-0.05-2.98-0.01-4.6-0.01c0.06-0.37,0.07-0.62,0.13-0.85
	c0.39-1.5,0.16-1.68-1.32-1.47c-3.54,0.51-7.09,0.92-10.63,1.37c-0.05-0.13-0.09-0.26-0.14-0.4c0.38-0.29,0.76-0.58,1.49-1.14
	c-1.88,0.3-3.32,0.53-5.08,0.81c0.53-0.71,0.87-1.15,1.31-1.75c-2.17-0.41-4.25-0.81-6.58-1.25c11.48-3.96,22.9-3.6,34.64-1.39
	c-0.99-1.35-1.85-2.06-3.23-2.22c-1.3-0.16-2.54-0.74-3.96-1.18c0.33-0.47,0.55-0.79,0.96-1.38c-3.23,0.72-6.2,1.39-9.44,2.12
	c0.46-0.66,0.75-1.07,0.99-1.42c-2.16-0.82-4.31-1.65-6.59-2.52c6.69-5.03,13.58-6.21,21.13-2.76
	C70.15,188.93,73.7,191.15,76.94,194.11z M80.4,301.59c28.94-4.73,57.46-3.61,85.9,3.02c0.63-11.24,1.24-22.21,1.87-33.54
	c-3.65,1.82-6.92,3.51-10.23,5.1c-8.34,3.99-16.58,8.2-25.08,11.8c-7.17,3.04-14.66,3.54-22.25,0.91c-8.67-3-17.01-6.68-24.88-11.4
	c-2.46-1.48-4.8-3.15-7.47-4.92C78.99,282.31,79.69,291.82,80.4,301.59z M45.65,247.52c-0.12,0.05-0.23,0.1-0.35,0.15
	c0,0.2-0.01,0.4,0,0.6c0.54,13.59,1.67,27.12,4.7,40.41c1.29,5.66,3.24,11.16,4.96,16.72c0.14,0.47,0.86,1.16,1.19,1.09
	c1.55-0.3,3.06-0.82,4.68-1.3c-2.09-13.59-2.49-27.11-1.76-40.6c-3.02,0.92-5.88,1.79-8.73,2.65c-0.11-0.18-0.22-0.36-0.33-0.54
	c1.96-2.21,3.92-4.43,5.87-6.62c-0.06-0.03-0.25-0.12-0.83-0.4c0.54-0.18,0.93-0.3,1.46-0.48c-1.59-1.94-2.88-3.52-4.31-5.26
	c-0.53,1.12-0.89,1.87-1.35,2.85c-0.74-1.88-1.22-3.56-2.05-5.04C47.93,250.23,46.71,248.92,45.65,247.52z M175.64,306.45
	c0.17-0.51,0.31-0.9,0.43-1.31c3.13-10.64,5.48-21.44,6.6-32.48c0.33-3.29,0.38-6.62,0.43-9.94c0.01-0.52-0.63-1.05-1.18-1.91
	c-0.34,0.95-0.49,1.36-0.66,1.84c-2.54-0.74-4.91-1.97-7.73-1.22c1.43,1.15,2.72,2.19,3.99,3.22c0.67-0.3,1.29-0.58,1.91-0.86
	c0.14,0.12,0.29,0.24,0.43,0.36c-0.55,0.82-1.1,1.64-1.68,2.52c0.51,0.62,1.18,1.42,1.95,2.35c-0.57,0.06-0.9,0.09-1.36,0.14
	c0.8,2.83,2.12,5.48,1.18,8.75c-1.91-2.47-3.67-4.75-5.46-7.07c-0.42,0.59-0.78,1.09-1.41,1.98c-0.14-1.51-0.24-2.59-0.34-3.7
	c-1.09,0.1-1.7,0.46-1.66,1.68c0.28,8.82,0.5,17.64,0.77,26.46c0.08,2.82,0.24,5.64,0.36,8.5C173.4,306,174.44,306.21,175.64,306.45
	z M195.76,261.88c-0.63-1.02-1.08-1.75-1.63-2.64c-0.77,1.01-1.43,1.88-2.12,2.78c0.72,0.49,1.26,0.87,2.1,1.44c-0.7,0-1,0.02-1.3,0
	c-2.11-0.14-3.25,0.95-3.22,3c0.03,2.99,0.07,5.99-0.01,8.98c-0.3,11.19-1.39,22.3-3.72,33.26c-0.08,0.4,0.12,0.85,0.19,1.28
	c0.35-0.31,0.82-0.56,1.02-0.95c0.78-1.58,1.53-3.18,2.18-4.81c5.8-14.7,8.37-30.12,10.27-45.7c0.24-2,0.42-4.02,0.63-6.03
	c-1.22,1.31-2.24,2.65-2.88,4.14C196.58,258.17,196.31,259.86,195.76,261.88z M183.13,248.28c-0.5,0.13-0.85,0.24-1.21,0.31
	c-2.31,0.46-4.61,0.9-7.11,1.39c0.19-0.44,0.33-0.78,0.51-1.2c-1.64,0-3.13,0-4.62,0c-0.04-0.14-0.09-0.28-0.13-0.43
	c4.02-1.68,8.04-3.35,12.13-5.06c0-0.5,0-1.22,0-1.85c-1.34-0.26-2.53-0.49-4.03-0.78c0.97-0.89,1.64-1.67,2.45-2.22
	c0.98-0.66,1.23-1.43,1.07-2.58c-0.54-3.87-0.98-7.75-1.49-11.62c-0.17-1.26-0.45-2.5-0.68-3.75c-0.1,0.02-0.2,0.03-0.29,0.05
	c-0.21,1.07-0.41,2.14-0.67,3.49c-0.64-0.85-1.09-1.44-1.62-2.14c-0.61,4.45-0.77,8.78-3.07,12.91c-0.38-1.11-0.64-1.89-0.9-2.66
	c-0.53,3.9-1.34,7.59-4.1,10.86c-0.12-1.03-0.21-1.73-0.29-2.43c-1.02,3.29-1.93,6.5-4.62,8.51c1.59,1.43,3.14,2.83,4.73,4.26
	c4.45-1.72,9.05-3.21,13.94-0.86C183.13,251.09,183.13,249.81,183.13,248.28z M70.77,302.94c1.03-0.14,1.71-0.27,2.4-0.31
	c1.1-0.06,1.6-0.48,1.52-1.69c-0.09-1.43,0.06-2.88,0.08-4.33c0.08-7.33-0.04-14.66,0.3-21.98c0.15-3.1-0.13-5.51-3.28-6.78
	c-0.1-0.04-0.2-0.07-0.27-0.1c-0.72,1.23-1.43,2.46-2.22,3.81c-0.32-0.55-0.53-0.91-0.74-1.27c-1.74,1.52-2.61,3.11-2.2,5.51
	c0.8,4.63,1.12,9.34,1.86,13.98C68.91,294.16,69.89,298.48,70.77,302.94z M60.29,250.32c0.38-2.91,0.75-5.74,1.11-8.55
	c-0.91-0.33-1.64-0.59-2.51-0.9c-0.07,0.82-0.11,1.37-0.16,1.98c-3.25-0.36-6.44-1.28-9.77,0.09c2.12,1.23,4.09,2.36,6.32,3.65
	c-0.82,0.2-1.29,0.32-1.77,0.43C55.81,248.01,57.12,250.88,60.29,250.32z M188.8,247.85c0.2,2.57,0.35,4.6,0.52,6.83
	c1.16-0.86,2.08-1.54,3.15-2.33c-0.75-0.05-1.27-0.09-2.24-0.16c2.18-1.58,4.04-2.92,5.9-4.27c-0.03-0.16-0.06-0.31-0.1-0.47
	C193.7,247.58,191.37,247.71,188.8,247.85z M49.54,236.39c0.05,0.22,0.11,0.44,0.16,0.66c4.13,0,8.26,0,12.53,0
	c0.11-0.59,0.25-1.33,0.41-2.18c-0.91,0.18-1.55,0.31-2.2,0.44c0.16,0.36,0.28,0.6,0.51,1.11c-1.31-0.46-2.31-0.8-3.3-1.16
	c-1.05-0.37-2.09-0.76-3.28-1.19c0.11,0.43,0.18,0.73,0.28,1.11c-0.98,0.18-1.88,0.3-2.75,0.51
	C51.09,235.88,50.32,236.15,49.54,236.39z M183.51,258.37c-1.56-2.59-6.58-3.41-8.55-1.63
	C177.74,257.27,180.49,257.79,183.51,258.37z M188.39,242.66c2.31-0.25,4.53-0.49,6.75-0.74c0.01-0.18,0.01-0.36,0.02-0.54
	c-1.46-0.19-2.92-0.32-4.37-0.59c-0.45-0.08-0.84-0.49-1.57-0.94C187.91,240,187.92,241.13,188.39,242.66z M80.21,269.87
	c1.27,0.91,2.51,1.8,3.75,2.7c0.13-0.13,0.26-0.25,0.39-0.38c-0.9-1.45-1.81-2.9-2.85-4.56C80.93,268.62,80.6,269.2,80.21,269.87z
	 M78.3,263.59c-0.24,0.08-0.48,0.16-0.72,0.24c0.8,1.83-0.74,4.53,2.69,5.76C79.55,267.38,78.93,265.49,78.3,263.59z M82.88,196.02
	c-0.03,0.22-0.06,0.45-0.1,0.67c1.81,0.23,3.62,0.46,5.42,0.69c0.02-0.12,0.04-0.24,0.06-0.36
	C86.47,196.69,84.68,196.35,82.88,196.02z M169.5,198.96c-0.02-0.23-0.04-0.46-0.06-0.69c-1.73,0.24-3.46,0.48-5.18,0.72
	c0.02,0.12,0.03,0.23,0.05,0.35C166.03,199.21,167.76,199.08,169.5,198.96z"/>
<text transform="matrix(1 0 0 1 266.8047 291.5469)" class="st0 st1 st2">Las Mieszkanias</text>
<path d="M76.94,21.11c3.74-3.9,7.87-6.22,13.31-4.58c3.74,1.12,6.23,3.56,7.64,7.41c-2.78-0.56-5.37-1.08-8.17-1.64
	c0.28,0.83,0.49,1.49,0.65,1.95c5.38,1.19,10.74,2.22,15.99,3.63c2.33,0.62,4.52,1.89,6.62,3.14c1.1,0.66,1.85,1.9,3.04,3.19
	c-3.32-0.93-6.1-1.72-9.29-2.61c0.5,1.13,0.78,1.75,1.3,2.91c-4.12-1.5-7.82-2.86-11.68-4.26c0.59,0.95,1.13,1.82,1.67,2.69
	c-3.75-1.59-7.6-2.04-11.88-1.86c3.01,1.18,5.8,2.13,8.45,3.36c2.64,1.23,5.15,2.74,7.72,4.12c-0.05,0.13-0.1,0.27-0.15,0.4
	c-0.75,0-1.5,0-2.34,0c1.86,1.55,3.62,3.02,5.38,4.48c-0.07,0.1-0.14,0.2-0.21,0.3c-0.51-0.07-1.02-0.14-1.82-0.26
	c3.52,4.19,5.42,8.95,7.4,13.94c-5.2-2.36-9.99-4.91-14.08-8.98c-0.19,1.02-0.31,1.68-0.44,2.43c-3.18-1.75-4.38-5.07-6.48-7.62
	c-0.13,0.05-0.26,0.1-0.39,0.15c0.25,1.25,0.49,2.5,0.74,3.75c-0.09,0.04-0.18,0.09-0.27,0.13c-0.84-1.49-1.67-2.99-2.59-4.62
	c-0.2,0.43-0.37,0.8-0.46,1c-1.38-1.9-2.82-3.87-4.26-5.84c-0.07,0.05-0.15,0.11-0.22,0.16c2.19,5.09,4.39,10.17,6.75,15.65
	c-0.84-0.33-1.27-0.51-1.56-0.62c0.61,2.43,1.22,4.85,1.83,7.28c-0.15,0.05-0.31,0.1-0.46,0.14c-0.29-0.54-0.58-1.08-1.04-1.93
	c-1.48,3.25,0.41,6.34-0.52,9.46c-0.07-0.33-0.16-0.68-0.24-1.03c-0.2,0.1-0.41,0.19-0.61,0.29c0.12,2.36,0.24,4.72,0.38,7.42
	c-3.46-2.31-3.98-5.86-4.96-9.28c-0.09,0.68-0.19,1.36-0.32,2.34c-2.69-3.44-3.28-7.21-3.4-11.56c-0.46,1.17-0.77,1.97-1.23,3.13
	c-2.07-4.27-2.07-8.58-2.39-13.15c-0.62,0.79-1.06,1.35-1.74,2.21c-0.2-1.51-0.36-2.73-0.52-3.94c-0.13-0.03-0.27-0.05-0.4-0.08
	c-1.28,7.04-2.57,14.08-3.84,21.08c2.63,0.94,4.92,1.77,7.22,2.59c-0.01,0.1-0.02,0.19-0.02,0.29c-1.48,0.13-2.96,0.27-4.53,0.41
	c0.19,0.44,0.34,0.79,0.57,1.33c-0.68-0.19-1.13-0.3-1.58-0.44c-1.32-0.4-1.93,0.02-2.06,1.45c-0.07,0.73-0.07,1.48-0.11,2.34
	c3.89-0.61,6.41,1.21,8.2,4.45c6.76-2.9,13.4-4.77,19.14,2.26c-1.49,0.29-2.84,0.55-4.2,0.81c0.03,0.18,0.07,0.35,0.1,0.53
	c-1.48-0.73-2.96-1.46-3.78-1.87c-2.04,0.38-3.51,0.66-4.98,0.93c-0.01,0.15-0.01,0.29-0.02,0.44c6.87,0.45,13.44,1.89,19.57,5.91
	c-1.43-0.08-2.55-0.14-3.75-0.21c0,0.33,0,0.6,0,1.23c-3.04-0.86-5.91-1.68-8.86-2.52c-0.05,0.19-0.15,0.58-0.23,0.93
	c-2.54-0.38-5.06-0.76-7.57-1.14c-0.05,0.19-0.11,0.38-0.16,0.58c1.42,1.08,2.84,2.16,4.46,3.38c-0.6,0.1-0.94,0.15-1.36,0.22
	c1.23,1.12,2.42,2.22,3.84,3.52c-0.65,0.15-1.01,0.23-1.5,0.34c0.34,0.95,0.74,1.82,0.96,2.73c0.34,1.39,0.64,2.79,0.78,4.21
	c0.08,0.79,0.19,1.28,1.05,1.47c11.27,2.52,22.53,5.41,34.21,4.56c10.37-0.75,20.6-2.44,30.55-5.59c1.75-0.56,3.42-0.96,3.68-3.22
	c-0.13-0.02-0.4-0.05-0.89-0.11c0.93-1.06,1.76-2.01,2.64-3.01c-0.32,0-0.66,0-1.06,0c0.33-1.09,2.12-1.26,1.81-3.01
	c-0.8,0.72-1.42,1.29-2.35,2.12c0.36-0.89,0.57-1.4,0.88-2.19c-1.75,1.25-3.27,2.32-5.03,3.57c-0.09-0.73-0.14-1.1-0.17-1.36
	c-3.05,0.83-6.1,1.66-9.15,2.5c-0.11-0.18-0.22-0.36-0.32-0.54c2.05-2.14,4.1-4.28,6.13-6.39c0.02,0.01-0.19-0.12-0.61-0.4
	c1.22-0.55,2.31-1.04,3.56-1.59c-0.37-0.18-0.62-0.3-0.88-0.43c-0.02-0.14-0.05-0.28-0.07-0.41c3.2-0.5,6.41-1,9.61-1.5
	c0.02-0.1,0.03-0.19,0.05-0.29c-1.97-0.24-3.95-0.48-5.98-0.73c0.16-0.24,0.39-0.59,0.72-1.09c-2.28,0.13-4.44,0.25-6.81,0.39
	c0.23-0.51,0.38-0.84,0.62-1.37c-1.74,0-3.35,0-4.96,0c-0.06-0.2-0.11-0.4-0.17-0.6c1.18-0.44,2.36-1.25,3.54-1.25
	c3.83-0.02,7.67,0.21,11.5,0.44c0.89,0.05,1.47,0.07,1.48-1.05c-1.46-0.16-2.92-0.33-4.42-0.49c1.36-2.41,3.83-3.3,7.24-2.55
	c0.26-2.21,0.51-4.41,0.82-7.01c-0.58,0.51-0.82,0.72-1.09,0.96c-0.64-3.07,1.2-6.06,0.13-9.45c-0.52,0.81-0.84,1.31-1.16,1.81
	c-0.17-0.06-0.33-0.12-0.5-0.18c0.74-2.37,1.49-4.73,2.23-7.09c-0.27,0.09-0.74,0.25-1.69,0.56c2.6-5.26,5.03-10.16,7.46-15.07
	c-0.07-0.07-0.13-0.15-0.2-0.22c-1.46,1.76-2.93,3.52-4.42,5.31c-0.09-0.22-0.21-0.53-0.36-0.92c-1.01,1.59-1.98,3.14-2.96,4.68
	c-0.08-0.04-0.16-0.08-0.23-0.11c0.36-1.37,0.72-2.75,1.08-4.12c-2.59,2.28-3.97,5.67-7.3,7.29c-0.11-0.68-0.21-1.33-0.29-1.81
	c-4.71,2.62-9.42,5.25-14.34,7.98c0.31-2.77,4.4-9.84,7.93-13.96c-0.7,0.08-1.29,0.15-1.89,0.22c-0.07-0.12-0.15-0.24-0.22-0.36
	c1.84-1.36,3.68-2.72,5.56-4.12c-0.71,0-1.43,0-2.14,0c-0.05-0.12-0.11-0.24-0.16-0.36c1.19-0.68,2.35-1.41,3.57-2.03
	c1.33-0.67,2.71-1.28,4.09-1.84c1.34-0.54,2.7-1.03,4.07-1.48c1.36-0.45,2.75-0.81,4.22-1.24c-2.28-0.96-7.57-0.35-11.72,1.44
	c0.81-1.21,1.41-2.1,2.04-3.05c-3.83,1.18-7.63,2.34-11.82,3.63c0.49-1.05,0.78-1.67,1.32-2.82c-3.15,0.71-5.91,1.33-8.66,1.95
	c-0.1-0.06-0.2-0.13-0.31-0.19c1.07-1.01,1.97-2.4,3.24-2.94c3.07-1.31,6.25-2.52,9.5-3.23c4.17-0.91,8.45-1.3,12.88-1.94
	c0.23-0.46,0.55-1.11,1.02-2.07c-2.88,0.42-5.52,0.81-8.17,1.21c1-3.88,5.27-7.07,9.75-7.29c4.26-0.21,6.36,0.81,11,5.29
	c2.77-1.64,5.43-3.43,8.27-4.84c3.56-1.76,7.36-2.96,11.41-2.86c4.72,0.12,8.52,2.52,12.58,5.4c-2.45,0.8-4.59,1.49-6.82,2.22
	c0.15,0.26,0.39,0.69,0.83,1.47c-3.27-0.93-6.26-1.78-9.4-2.67c0.34,0.47,0.61,0.86,0.92,1.28c-2.07,1.59-5.37,0.34-7.1,3.25
	c11.73-1.63,23.13-1.31,34.44,3.21c-2.39,0.32-4.47,0.6-6.73,0.9c0.43,0.59,0.75,1.04,1.32,1.82c-1.74-0.36-3.14-0.66-4.93-1.03
	c0.62,0.57,0.94,0.87,1.27,1.17c-0.04,0.11-0.09,0.22-0.13,0.34c-3.3-0.55-6.63-1-9.91-1.68c-2.36-0.49-2.42-0.55-1.91,2.13
	c-2.34-0.2-4.6-0.62-6.83-0.51c-2.19,0.11-4.35,0.76-6.54,1.51c2.86,1.36,5.71,2.73,8.57,4.09c-0.03,0.12-0.07,0.23-0.1,0.35
	c-0.7,0.16-1.4,0.33-2.07,0.48c2.46,1.5,4.95,3.01,7.44,4.52c-0.07,0.16-0.15,0.32-0.22,0.48c-0.64,0.11-1.28,0.21-2.16,0.36
	c2.56,4.34,5.71,8.21,5.6,13.57c-1.82-1.32-3.58-2.59-5.4-3.91c0,0.26,0,0.55,0,1.04c-2.1-2.27-3.53-4.92-6.34-6.35
	c-0.42,1.2-0.79,2.28-1.27,3.67c-1.2-2.48-2.03-4.76-3.33-6.71c-1.32-1.97-3.13-3.62-4.98-5.28c1.63,7.02,3.26,14.03,4.91,21.15
	c5.35-0.65,10.36,0.78,15.28,3.4c2.22-3.74,5.24-6.17,9.92-5.48c2.42,0.36,4.59,1.88,5.78,4.15c-2.03,0-3.96,0-5.96,0
	c0.32,1.32,0.95,1.49,2.09,1.48c4.54-0.05,9.08-0.02,13.61,0.22c1.9,0.1,3.73,0.87,4.96,2.65c-2.19-0.12-4.27-0.24-6.64-0.37
	c0.41,0.72,0.66,1.15,1.1,1.92c-3.08-0.38-5.85-0.73-8.86-1.1c0.54,0.66,0.94,1.17,1.17,1.45c-2.58,0.11-5.26,0.23-7.94,0.35
	c0,0.12,0.01,0.25,0.01,0.37c4.06,0.88,8.12,1.76,12.18,2.64c-0.02,0.19-0.04,0.38-0.06,0.57c-0.44,0.09-0.88,0.18-1.55,0.33
	c1.63,0.84,3.08,1.58,4.9,2.51c-0.77,0.15-1.13,0.21-1.24,0.23c2.37,2.78,4.83,5.66,7.29,8.54c-0.13,0.21-0.27,0.42-0.4,0.63
	c-3.78-1.28-7.55-2.56-11.33-3.84c-0.02,0.28-0.05,0.74-0.11,1.68c-2.15-1.71-4.03-3.21-6.31-5.02c0.54,1.22,0.9,2.03,1.25,2.83
	c-0.06,0.06-0.13,0.12-0.19,0.18c-0.82-0.89-1.64-1.78-2.55-2.76c-0.11,0.25-0.2,0.46-0.28,0.64c-1.15-1-2.3-2.02-3.46-3.03
	c-0.08,0.08-0.16,0.16-0.23,0.24c2.29,3.16,4.58,6.31,7.01,9.67c-0.63,0-0.96,0-1.18,0c0.79,1.45,1.57,2.88,2.35,4.31
	c-0.08,0.09-0.17,0.17-0.25,0.26c-0.27-0.12-0.55-0.23-1.12-0.47c0.16,0.93,0.23,1.69,0.42,2.43c0.3,1.19,1.28,2.62,0.9,3.49
	c-0.91,2.13,0.66,3.63,0.73,5.43c-1.8-0.1-2.78-1.21-4.97-5.77c0,0.66,0,1.16,0,1.87c-2.44-1.81-3.29-4.43-4.36-7.38
	c-0.16,0.89-0.25,1.37-0.38,2.09c-2.21-2.76-2.88-5.96-3.93-9.16c-0.63,0.71-1.17,1.31-1.83,2.05c-0.08-1.03-0.14-1.84-0.2-2.66
	c-0.12,9.52-1.02,18.97-2.62,28.33c-1.6,9.32-3.52,18.59-5.31,27.95c6.53,2.99,13.35,6.12,20.18,9.25c-0.05,0.13-0.1,0.27-0.15,0.4
	c-30.34-12.75-62.23-17.67-94.85-18.41c-32.7-0.74-64.81,2.99-95.86,14.02c2.42-1.09,4.83-2.22,7.28-3.25
	c2.51-1.06,5.05-2.05,7.6-3.01c2.55-0.96,5.12-1.83,7.78-2.78c-0.66-3.98-1.37-7.91-1.97-11.85c-2.12-13.94-3.44-27.93-3.01-42.06
	c0.02-0.65-0.33-1.32-0.74-1.96c-1.05,3.1-1.22,6.41-3.24,9.4c-0.21-0.69-0.35-1.16-0.62-2.06c-0.7,3.07-1.38,5.72-3.54,7.92
	c-0.09-0.59-0.16-1-0.28-1.75c-1.03,2.65-1.68,5.17-4.47,6.52c0.22-0.88,0.49-1.5,0.49-2.11c0-1.17,0.9-2.2-0.06-3.6
	c-0.52-0.76,0.3-2.44,0.48-3.7c0.11-0.8,0.15-1.6,0.22-2.4c-0.13-0.04-0.27-0.07-0.4-0.11c-0.25,0.3-0.5,0.6-0.76,0.9
	c-0.11-0.06-0.22-0.11-0.34-0.17c0.64-1.61,1.29-3.21,1.94-4.85c-0.14,0-0.46,0-1.07,0c2.07-3.57,4.08-7.05,6.1-10.54
	c-0.03-0.05-0.06-0.1-0.09-0.15c-0.63,0.56-1.3,1.09-1.88,1.7c-0.58,0.61-1.06,1.3-1.6,1.98c-0.11-0.28-0.21-0.52-0.32-0.81
	c-0.77,1.06-1.51,2.08-2.25,3.11c-0.07-0.03-0.14-0.06-0.21-0.09c0.26-0.87,0.52-1.74,0.9-3.02c-2.03,2.02-3.74,3.71-5.75,5.72
	c-0.15-1.05-0.22-1.54-0.25-1.81c-3.62,1.68-7.22,3.36-10.83,5.04c-0.13-0.14-0.26-0.29-0.39-0.43c1-1.64,1.92-3.34,3.01-4.92
	c1.09-1.57,2.34-3.03,3.49-4.5c-0.24-0.04-0.6-0.09-1.36-0.2c1.58-1.02,2.86-1.86,4.25-2.75c-0.39-0.15-0.79-0.3-1.36-0.52
	c3.85-2.14,7.94-3.19,12.11-4.03c-0.02-0.18-0.03-0.35-0.05-0.53c-2.78,0.14-5.55,0.28-8.26,0.42c0.18-0.26,0.55-0.79,1.08-1.57
	c-2.98,0.68-5.74,1.3-8.83,2c0.4-0.78,0.63-1.21,1.03-2c-2.35,0.34-4.42,0.63-6.48,0.93c-0.08-0.1-0.16-0.19-0.23-0.29
	c1-0.71,1.91-1.79,3.01-2.07c3.35-0.84,6.76-1.47,10.17-1.99c2.11-0.32,4.26-0.29,6.41-0.42c0.22-0.43,0.43-0.85,0.78-1.53
	c-2.14,0.16-4.11,0.31-6.1,0.45c1.21-3.04,4.3-4.98,7.79-4.95c2.67,0.02,3.8,0.68,7.95,4.62c6.9-3.89,13.8-7.35,21.53-2.14
	c2.06-7.09,4.1-14.15,6.19-21.34c-3.73,3.28-7.53,6.37-8.45,11.69c-0.21-0.04-0.42-0.09-0.62-0.13c-0.34-1.06-0.68-2.12-1.08-3.38
	c-2.92,1.1-4.4,3.84-6.6,5.94c0-0.38,0-0.68,0-1.02c-1.84,1.19-3.65,2.36-5.47,3.53c-0.17-0.1-0.35-0.2-0.52-0.29
	c0.84-2.25,1.49-4.6,2.59-6.73c1.09-2.11,2.63-4,4.08-6.15c-0.83-0.19-1.47-0.34-2.12-0.49c-0.07-0.14-0.15-0.28-0.22-0.43
	c2.58-1.4,5.16-2.8,7.72-4.19c-0.63-0.16-1.34-0.35-2.05-0.53c-0.06-0.13-0.11-0.25-0.17-0.38c2.89-1.21,5.78-2.42,9.06-3.79
	c-1.68-0.52-3.03-1.07-4.42-1.31c-1.45-0.26-2.95-0.26-4.43-0.31c-1.49-0.05-2.98-0.01-4.6-0.01c0.06-0.37,0.07-0.62,0.13-0.85
	c0.39-1.5,0.16-1.68-1.32-1.47c-3.54,0.51-7.09,0.92-10.63,1.37c-0.05-0.13-0.09-0.26-0.14-0.4c0.38-0.29,0.76-0.58,1.49-1.14
	c-1.88,0.3-3.32,0.53-5.08,0.81c0.53-0.71,0.87-1.15,1.31-1.75c-2.17-0.41-4.25-0.81-6.58-1.25c11.48-3.96,22.9-3.6,34.64-1.39
	c-0.99-1.35-1.85-2.06-3.23-2.22c-1.3-0.16-2.54-0.74-3.96-1.18c0.33-0.47,0.55-0.79,0.96-1.38c-3.23,0.72-6.2,1.39-9.44,2.12
	c0.46-0.66,0.75-1.07,0.99-1.42c-2.16-0.82-4.31-1.65-6.59-2.52c6.69-5.03,13.58-6.21,21.13-2.76
	C70.15,15.93,73.7,18.15,76.94,21.11z M80.4,128.59c28.94-4.73,57.46-3.61,85.9,3.02c0.63-11.24,1.24-22.21,1.87-33.54
	c-3.65,1.82-6.92,3.51-10.23,5.1c-8.34,3.99-16.58,8.2-25.08,11.8c-7.17,3.04-14.66,3.54-22.25,0.91c-8.67-3-17.01-6.68-24.88-11.4
	c-2.46-1.48-4.8-3.15-7.47-4.92C78.99,109.31,79.69,118.82,80.4,128.59z M45.65,74.52c-0.12,0.05-0.23,0.1-0.35,0.15
	c0,0.2-0.01,0.4,0,0.6c0.54,13.59,1.67,27.12,4.7,40.41c1.29,5.66,3.24,11.16,4.96,16.72c0.14,0.47,0.86,1.16,1.19,1.09
	c1.55-0.3,3.06-0.82,4.68-1.3c-2.09-13.59-2.49-27.11-1.76-40.6c-3.02,0.92-5.88,1.79-8.73,2.65c-0.11-0.18-0.22-0.36-0.33-0.54
	c1.96-2.21,3.92-4.43,5.87-6.62c-0.06-0.03-0.25-0.12-0.83-0.4c0.54-0.18,0.93-0.3,1.46-0.48c-1.59-1.94-2.88-3.52-4.31-5.26
	c-0.53,1.12-0.89,1.87-1.35,2.85c-0.74-1.88-1.22-3.56-2.05-5.04C47.93,77.23,46.71,75.92,45.65,74.52z M175.64,133.45
	c0.17-0.51,0.31-0.9,0.43-1.31c3.13-10.64,5.48-21.44,6.6-32.48c0.33-3.29,0.38-6.62,0.43-9.94c0.01-0.52-0.63-1.05-1.18-1.91
	c-0.34,0.95-0.49,1.36-0.66,1.84c-2.54-0.74-4.91-1.97-7.73-1.22c1.43,1.15,2.72,2.19,3.99,3.22c0.67-0.3,1.29-0.58,1.91-0.86
	c0.14,0.12,0.29,0.24,0.43,0.36c-0.55,0.82-1.1,1.64-1.68,2.52c0.51,0.62,1.18,1.42,1.95,2.35c-0.57,0.06-0.9,0.09-1.36,0.14
	c0.8,2.83,2.12,5.48,1.18,8.75c-1.91-2.47-3.67-4.75-5.46-7.07c-0.42,0.59-0.78,1.09-1.41,1.98c-0.14-1.51-0.24-2.59-0.34-3.7
	c-1.09,0.1-1.7,0.46-1.66,1.68c0.28,8.82,0.5,17.64,0.77,26.46c0.08,2.82,0.24,5.64,0.36,8.5C173.4,133,174.44,133.21,175.64,133.45
	z M195.76,88.88c-0.63-1.02-1.08-1.75-1.63-2.64c-0.77,1.01-1.43,1.88-2.12,2.78c0.72,0.49,1.26,0.87,2.1,1.44c-0.7,0-1,0.02-1.3,0
	c-2.11-0.14-3.25,0.95-3.22,3c0.03,2.99,0.07,5.99-0.01,8.98c-0.3,11.19-1.39,22.3-3.72,33.26c-0.08,0.4,0.12,0.85,0.19,1.28
	c0.35-0.31,0.82-0.56,1.02-0.95c0.78-1.58,1.53-3.18,2.18-4.81c5.8-14.7,8.37-30.12,10.27-45.7c0.24-2,0.42-4.02,0.63-6.03
	c-1.22,1.31-2.24,2.65-2.88,4.14C196.58,85.17,196.31,86.86,195.76,88.88z M183.13,75.28c-0.5,0.13-0.85,0.24-1.21,0.31
	c-2.31,0.46-4.61,0.9-7.11,1.39c0.19-0.44,0.33-0.78,0.51-1.2c-1.64,0-3.13,0-4.62,0c-0.04-0.14-0.09-0.28-0.13-0.43
	c4.02-1.68,8.04-3.35,12.13-5.06c0-0.5,0-1.22,0-1.85c-1.34-0.26-2.53-0.49-4.03-0.78c0.97-0.89,1.64-1.67,2.45-2.22
	c0.98-0.66,1.23-1.43,1.07-2.58c-0.54-3.87-0.98-7.75-1.49-11.62c-0.17-1.26-0.45-2.5-0.68-3.75c-0.1,0.02-0.2,0.03-0.29,0.05
	c-0.21,1.07-0.41,2.14-0.67,3.49c-0.64-0.85-1.09-1.44-1.62-2.14c-0.61,4.45-0.77,8.78-3.07,12.91c-0.38-1.11-0.64-1.89-0.9-2.66
	c-0.53,3.9-1.34,7.59-4.1,10.86c-0.12-1.03-0.21-1.73-0.29-2.43c-1.02,3.29-1.93,6.5-4.62,8.51c1.59,1.43,3.14,2.83,4.73,4.26
	c4.45-1.72,9.05-3.21,13.94-0.86C183.13,78.09,183.13,76.81,183.13,75.28z M70.77,129.94c1.03-0.14,1.71-0.27,2.4-0.31
	c1.1-0.06,1.6-0.48,1.52-1.69c-0.09-1.43,0.06-2.88,0.08-4.33c0.08-7.33-0.04-14.66,0.3-21.98c0.15-3.1-0.13-5.51-3.28-6.78
	c-0.1-0.04-0.2-0.07-0.27-0.1c-0.72,1.23-1.43,2.46-2.22,3.81c-0.32-0.55-0.53-0.91-0.74-1.27c-1.74,1.52-2.61,3.11-2.2,5.51
	c0.8,4.63,1.12,9.34,1.86,13.98C68.91,121.16,69.89,125.48,70.77,129.94z M60.29,77.32c0.38-2.91,0.75-5.74,1.11-8.55
	c-0.91-0.33-1.64-0.59-2.51-0.9c-0.07,0.82-0.11,1.37-0.16,1.98c-3.25-0.36-6.44-1.28-9.77,0.09c2.12,1.23,4.09,2.36,6.32,3.65
	c-0.82,0.2-1.29,0.32-1.77,0.43C55.81,75.01,57.12,77.88,60.29,77.32z M188.8,74.85c0.2,2.57,0.35,4.6,0.52,6.83
	c1.16-0.86,2.08-1.54,3.15-2.33c-0.75-0.05-1.27-0.09-2.24-0.16c2.18-1.58,4.04-2.92,5.9-4.27c-0.03-0.16-0.06-0.31-0.1-0.47
	C193.7,74.58,191.37,74.71,188.8,74.85z M49.54,63.39c0.05,0.22,0.11,0.44,0.16,0.66c4.13,0,8.26,0,12.53,0
	c0.11-0.59,0.25-1.33,0.41-2.18c-0.91,0.18-1.55,0.31-2.2,0.44c0.16,0.36,0.28,0.6,0.51,1.11c-1.31-0.46-2.31-0.8-3.3-1.16
	c-1.05-0.37-2.09-0.76-3.28-1.19c0.11,0.43,0.18,0.73,0.28,1.11c-0.98,0.18-1.88,0.3-2.75,0.51C51.09,62.88,50.32,63.15,49.54,63.39
	z M183.51,85.37c-1.56-2.59-6.58-3.41-8.55-1.63C177.74,84.27,180.49,84.79,183.51,85.37z M188.39,69.66
	c2.31-0.25,4.53-0.49,6.75-0.74c0.01-0.18,0.01-0.36,0.02-0.54c-1.46-0.19-2.92-0.32-4.37-0.59c-0.45-0.08-0.84-0.49-1.57-0.94
	C187.91,67,187.92,68.13,188.39,69.66z M80.21,96.87c1.27,0.91,2.51,1.8,3.75,2.7c0.13-0.13,0.26-0.25,0.39-0.38
	c-0.9-1.45-1.81-2.9-2.85-4.56C80.93,95.62,80.6,96.2,80.21,96.87z M78.3,90.59c-0.24,0.08-0.48,0.16-0.72,0.24
	c0.8,1.83-0.74,4.53,2.69,5.76C79.55,94.38,78.93,92.49,78.3,90.59z M82.88,23.02c-0.03,0.22-0.06,0.45-0.1,0.67
	c1.81,0.23,3.62,0.46,5.42,0.69c0.02-0.12,0.04-0.24,0.06-0.36C86.47,23.69,84.68,23.35,82.88,23.02z M169.5,25.96
	c-0.02-0.23-0.04-0.46-0.06-0.69c-1.73,0.24-3.46,0.48-5.18,0.72c0.02,0.12,0.03,0.23,0.05,0.35
	C166.03,26.21,167.76,26.08,169.5,25.96z"/>
<text transform="matrix(1 0 0 1 266.8047 118.5469)" class="st1 st2">Las Mieszkanias</text>
<path class="st0" d="M76.94-149.89c3.74-3.9,7.87-6.22,13.31-4.58c3.74,1.12,6.23,3.56,7.64,7.41c-2.78-0.56-5.37-1.08-8.17-1.64
	c0.28,0.83,0.49,1.49,0.65,1.95c5.38,1.19,10.74,2.22,15.99,3.63c2.33,0.62,4.52,1.89,6.62,3.14c1.1,0.66,1.85,1.9,3.04,3.19
	c-3.32-0.93-6.1-1.72-9.29-2.61c0.5,1.13,0.78,1.75,1.3,2.91c-4.12-1.5-7.82-2.86-11.68-4.26c0.59,0.95,1.13,1.82,1.67,2.69
	c-3.75-1.59-7.6-2.04-11.88-1.86c3.01,1.18,5.8,2.13,8.45,3.36c2.64,1.23,5.15,2.74,7.72,4.12c-0.05,0.13-0.1,0.27-0.15,0.4
	c-0.75,0-1.5,0-2.34,0c1.86,1.55,3.62,3.02,5.38,4.48c-0.07,0.1-0.14,0.2-0.21,0.3c-0.51-0.07-1.02-0.14-1.82-0.26
	c3.52,4.19,5.42,8.95,7.4,13.94c-5.2-2.36-9.99-4.91-14.08-8.98c-0.19,1.02-0.31,1.68-0.44,2.43c-3.18-1.75-4.38-5.07-6.48-7.62
	c-0.13,0.05-0.26,0.1-0.39,0.15c0.25,1.25,0.49,2.5,0.74,3.75c-0.09,0.04-0.18,0.09-0.27,0.13c-0.84-1.49-1.67-2.99-2.59-4.62
	c-0.2,0.43-0.37,0.8-0.46,1c-1.38-1.9-2.82-3.87-4.26-5.84c-0.07,0.05-0.15,0.11-0.22,0.16c2.19,5.09,4.39,10.17,6.75,15.65
	c-0.84-0.33-1.27-0.51-1.56-0.62c0.61,2.43,1.22,4.85,1.83,7.28c-0.15,0.05-0.31,0.1-0.46,0.14c-0.29-0.54-0.58-1.08-1.04-1.93
	c-1.48,3.25,0.41,6.34-0.52,9.46c-0.07-0.33-0.16-0.68-0.24-1.03c-0.2,0.1-0.41,0.19-0.61,0.29c0.12,2.36,0.24,4.72,0.38,7.42
	c-3.46-2.31-3.98-5.86-4.96-9.28c-0.09,0.68-0.19,1.36-0.32,2.34c-2.69-3.44-3.28-7.21-3.4-11.56c-0.46,1.17-0.77,1.97-1.23,3.13
	c-2.07-4.27-2.07-8.58-2.39-13.15c-0.62,0.79-1.06,1.35-1.74,2.21c-0.2-1.51-0.36-2.73-0.52-3.94c-0.13-0.03-0.27-0.05-0.4-0.08
	c-1.28,7.04-2.57,14.08-3.84,21.08c2.63,0.94,4.92,1.77,7.22,2.59c-0.01,0.1-0.02,0.19-0.02,0.29c-1.48,0.13-2.96,0.27-4.53,0.41
	c0.19,0.44,0.34,0.79,0.57,1.33c-0.68-0.19-1.13-0.3-1.58-0.44c-1.32-0.4-1.93,0.02-2.06,1.45c-0.07,0.73-0.07,1.48-0.11,2.34
	c3.89-0.61,6.41,1.21,8.2,4.45c6.76-2.9,13.4-4.77,19.14,2.26c-1.49,0.29-2.84,0.55-4.2,0.81c0.03,0.18,0.07,0.35,0.1,0.53
	c-1.48-0.73-2.96-1.46-3.78-1.87c-2.04,0.38-3.51,0.66-4.98,0.93c-0.01,0.15-0.01,0.29-0.02,0.44c6.87,0.45,13.44,1.89,19.57,5.91
	c-1.43-0.08-2.55-0.14-3.75-0.21c0,0.33,0,0.6,0,1.23c-3.04-0.86-5.91-1.68-8.86-2.52c-0.05,0.19-0.15,0.58-0.23,0.93
	c-2.54-0.38-5.06-0.76-7.57-1.14c-0.05,0.19-0.11,0.38-0.16,0.58c1.42,1.08,2.84,2.16,4.46,3.38c-0.6,0.1-0.94,0.15-1.36,0.22
	c1.23,1.12,2.42,2.22,3.84,3.52c-0.65,0.15-1.01,0.23-1.5,0.34c0.34,0.95,0.74,1.82,0.96,2.73c0.34,1.39,0.64,2.79,0.78,4.21
	c0.08,0.79,0.19,1.28,1.05,1.47c11.27,2.52,22.53,5.41,34.21,4.56c10.37-0.75,20.6-2.44,30.55-5.59c1.75-0.56,3.42-0.96,3.68-3.22
	c-0.13-0.02-0.4-0.05-0.89-0.11c0.93-1.06,1.76-2.01,2.64-3.01c-0.32,0-0.66,0-1.06,0c0.33-1.09,2.12-1.26,1.81-3.01
	c-0.8,0.72-1.42,1.29-2.35,2.12c0.36-0.89,0.57-1.4,0.88-2.19c-1.75,1.25-3.27,2.32-5.03,3.57c-0.09-0.73-0.14-1.1-0.17-1.36
	c-3.05,0.83-6.1,1.66-9.15,2.5c-0.11-0.18-0.22-0.36-0.32-0.54c2.05-2.14,4.1-4.28,6.13-6.39c0.02,0.01-0.19-0.12-0.61-0.4
	c1.22-0.55,2.31-1.04,3.56-1.59c-0.37-0.18-0.62-0.3-0.88-0.43c-0.02-0.14-0.05-0.28-0.07-0.41c3.2-0.5,6.41-1,9.61-1.5
	c0.02-0.1,0.03-0.19,0.05-0.29c-1.97-0.24-3.95-0.48-5.98-0.73c0.16-0.24,0.39-0.59,0.72-1.09c-2.28,0.13-4.44,0.25-6.81,0.39
	c0.23-0.51,0.38-0.84,0.62-1.37c-1.74,0-3.35,0-4.96,0c-0.06-0.2-0.11-0.4-0.17-0.6c1.18-0.44,2.36-1.25,3.54-1.25
	c3.83-0.02,7.67,0.21,11.5,0.44c0.89,0.05,1.47,0.07,1.48-1.05c-1.46-0.16-2.92-0.33-4.42-0.49c1.36-2.41,3.83-3.3,7.24-2.55
	c0.26-2.21,0.51-4.41,0.82-7.01c-0.58,0.51-0.82,0.72-1.09,0.96c-0.64-3.07,1.2-6.06,0.13-9.45c-0.52,0.81-0.84,1.31-1.16,1.81
	c-0.17-0.06-0.33-0.12-0.5-0.18c0.74-2.37,1.49-4.73,2.23-7.09c-0.27,0.09-0.74,0.25-1.69,0.56c2.6-5.26,5.03-10.16,7.46-15.07
	c-0.07-0.07-0.13-0.15-0.2-0.22c-1.46,1.76-2.93,3.52-4.42,5.31c-0.09-0.22-0.21-0.53-0.36-0.92c-1.01,1.59-1.98,3.14-2.96,4.68
	c-0.08-0.04-0.16-0.08-0.23-0.11c0.36-1.37,0.72-2.75,1.08-4.12c-2.59,2.28-3.97,5.67-7.3,7.29c-0.11-0.68-0.21-1.33-0.29-1.81
	c-4.71,2.62-9.42,5.25-14.34,7.98c0.31-2.77,4.4-9.84,7.93-13.96c-0.7,0.08-1.29,0.15-1.89,0.22c-0.07-0.12-0.15-0.24-0.22-0.36
	c1.84-1.36,3.68-2.72,5.56-4.12c-0.71,0-1.43,0-2.14,0c-0.05-0.12-0.11-0.24-0.16-0.36c1.19-0.68,2.35-1.41,3.57-2.03
	c1.33-0.67,2.71-1.28,4.09-1.84c1.34-0.54,2.7-1.03,4.07-1.48c1.36-0.45,2.75-0.81,4.22-1.24c-2.28-0.96-7.57-0.35-11.72,1.44
	c0.81-1.21,1.41-2.1,2.04-3.05c-3.83,1.18-7.63,2.34-11.82,3.63c0.49-1.05,0.78-1.67,1.32-2.82c-3.15,0.71-5.91,1.33-8.66,1.95
	c-0.1-0.06-0.2-0.13-0.31-0.19c1.07-1.01,1.97-2.4,3.24-2.94c3.07-1.31,6.25-2.52,9.5-3.23c4.17-0.91,8.45-1.3,12.88-1.94
	c0.23-0.46,0.55-1.11,1.02-2.07c-2.88,0.42-5.52,0.81-8.17,1.21c1-3.88,5.27-7.07,9.75-7.29c4.26-0.21,6.36,0.81,11,5.29
	c2.77-1.64,5.43-3.43,8.27-4.84c3.56-1.76,7.36-2.96,11.41-2.86c4.72,0.12,8.52,2.52,12.58,5.4c-2.45,0.8-4.59,1.49-6.82,2.22
	c0.15,0.26,0.39,0.69,0.83,1.47c-3.27-0.93-6.26-1.78-9.4-2.67c0.34,0.47,0.61,0.86,0.92,1.28c-2.07,1.59-5.37,0.34-7.1,3.25
	c11.73-1.63,23.13-1.31,34.44,3.21c-2.39,0.32-4.47,0.6-6.73,0.9c0.43,0.59,0.75,1.04,1.32,1.82c-1.74-0.36-3.14-0.66-4.93-1.03
	c0.62,0.57,0.94,0.87,1.27,1.17c-0.04,0.11-0.09,0.22-0.13,0.34c-3.3-0.55-6.63-1-9.91-1.68c-2.36-0.49-2.42-0.55-1.91,2.13
	c-2.34-0.2-4.6-0.62-6.83-0.51c-2.19,0.11-4.35,0.76-6.54,1.51c2.86,1.36,5.71,2.73,8.57,4.09c-0.03,0.12-0.07,0.23-0.1,0.35
	c-0.7,0.16-1.4,0.33-2.07,0.48c2.46,1.5,4.95,3.01,7.44,4.52c-0.07,0.16-0.15,0.32-0.22,0.48c-0.64,0.11-1.28,0.21-2.16,0.36
	c2.56,4.34,5.71,8.21,5.6,13.57c-1.82-1.32-3.58-2.59-5.4-3.91c0,0.26,0,0.55,0,1.04c-2.1-2.27-3.53-4.92-6.34-6.35
	c-0.42,1.2-0.79,2.28-1.27,3.67c-1.2-2.48-2.03-4.76-3.33-6.71c-1.32-1.97-3.13-3.62-4.98-5.28c1.63,7.02,3.26,14.03,4.91,21.15
	c5.35-0.65,10.36,0.78,15.28,3.4c2.22-3.74,5.24-6.17,9.92-5.48c2.42,0.36,4.59,1.88,5.78,4.15c-2.03,0-3.96,0-5.96,0
	c0.32,1.32,0.95,1.49,2.09,1.48c4.54-0.05,9.08-0.02,13.61,0.22c1.9,0.1,3.73,0.87,4.96,2.65c-2.19-0.12-4.27-0.24-6.64-0.37
	c0.41,0.72,0.66,1.15,1.1,1.92c-3.08-0.38-5.85-0.73-8.86-1.1c0.54,0.66,0.94,1.17,1.17,1.45c-2.58,0.11-5.26,0.23-7.94,0.35
	c0,0.12,0.01,0.25,0.01,0.37c4.06,0.88,8.12,1.76,12.18,2.64c-0.02,0.19-0.04,0.38-0.06,0.57c-0.44,0.09-0.88,0.18-1.55,0.33
	c1.63,0.84,3.08,1.58,4.9,2.51c-0.77,0.15-1.13,0.21-1.24,0.23c2.37,2.78,4.83,5.66,7.29,8.54c-0.13,0.21-0.27,0.42-0.4,0.63
	c-3.78-1.28-7.55-2.56-11.33-3.84c-0.02,0.28-0.05,0.74-0.11,1.68c-2.15-1.71-4.03-3.21-6.31-5.02c0.54,1.22,0.9,2.03,1.25,2.83
	c-0.06,0.06-0.13,0.12-0.19,0.18c-0.82-0.89-1.64-1.78-2.55-2.76c-0.11,0.25-0.2,0.46-0.28,0.64c-1.15-1-2.3-2.02-3.46-3.03
	c-0.08,0.08-0.16,0.16-0.23,0.24c2.29,3.16,4.58,6.31,7.01,9.67c-0.63,0-0.96,0-1.18,0c0.79,1.45,1.57,2.88,2.35,4.31
	c-0.08,0.09-0.17,0.17-0.25,0.26c-0.27-0.12-0.55-0.23-1.12-0.47c0.16,0.93,0.23,1.69,0.42,2.43c0.3,1.19,1.28,2.62,0.9,3.49
	c-0.91,2.13,0.66,3.63,0.73,5.43c-1.8-0.1-2.78-1.21-4.97-5.77c0,0.66,0,1.16,0,1.87c-2.44-1.81-3.29-4.43-4.36-7.38
	c-0.16,0.89-0.25,1.37-0.38,2.09c-2.21-2.76-2.88-5.96-3.93-9.16c-0.63,0.71-1.17,1.31-1.83,2.05c-0.08-1.03-0.14-1.84-0.2-2.66
	c-0.12,9.52-1.02,18.97-2.62,28.33c-1.6,9.32-3.52,18.59-5.31,27.95c6.53,2.99,13.35,6.12,20.18,9.25c-0.05,0.13-0.1,0.27-0.15,0.4
	c-30.34-12.75-62.23-17.67-94.85-18.41c-32.7-0.74-64.81,2.99-95.86,14.02c2.42-1.09,4.83-2.22,7.28-3.25
	c2.51-1.06,5.05-2.05,7.6-3.01c2.55-0.96,5.12-1.83,7.78-2.78c-0.66-3.98-1.37-7.91-1.97-11.85c-2.12-13.94-3.44-27.93-3.01-42.06
	c0.02-0.65-0.33-1.32-0.74-1.96c-1.05,3.1-1.22,6.41-3.24,9.4c-0.21-0.69-0.35-1.16-0.62-2.06c-0.7,3.07-1.38,5.72-3.54,7.92
	c-0.09-0.59-0.16-1-0.28-1.75c-1.03,2.65-1.68,5.17-4.47,6.52c0.22-0.88,0.49-1.5,0.49-2.11c0-1.17,0.9-2.2-0.06-3.6
	c-0.52-0.76,0.3-2.44,0.48-3.7c0.11-0.8,0.15-1.6,0.22-2.4c-0.13-0.04-0.27-0.07-0.4-0.11c-0.25,0.3-0.5,0.6-0.76,0.9
	c-0.11-0.06-0.22-0.11-0.34-0.17c0.64-1.61,1.29-3.21,1.94-4.85c-0.14,0-0.46,0-1.07,0c2.07-3.57,4.08-7.05,6.1-10.54
	c-0.03-0.05-0.06-0.1-0.09-0.15c-0.63,0.56-1.3,1.09-1.88,1.7c-0.58,0.61-1.06,1.3-1.6,1.98c-0.11-0.28-0.21-0.52-0.32-0.81
	c-0.77,1.06-1.51,2.08-2.25,3.11c-0.07-0.03-0.14-0.06-0.21-0.09c0.26-0.87,0.52-1.74,0.9-3.02c-2.03,2.02-3.74,3.71-5.75,5.72
	c-0.15-1.05-0.22-1.54-0.25-1.81c-3.62,1.68-7.22,3.36-10.83,5.04c-0.13-0.14-0.26-0.29-0.39-0.43c1-1.64,1.92-3.34,3.01-4.92
	c1.09-1.57,2.34-3.03,3.49-4.5c-0.24-0.04-0.6-0.09-1.36-0.2c1.58-1.02,2.86-1.86,4.25-2.75c-0.39-0.15-0.79-0.3-1.36-0.52
	c3.85-2.14,7.94-3.19,12.11-4.03c-0.02-0.18-0.03-0.35-0.05-0.53c-2.78,0.14-5.55,0.28-8.26,0.42c0.18-0.26,0.55-0.79,1.08-1.57
	c-2.98,0.68-5.74,1.3-8.83,2c0.4-0.78,0.63-1.21,1.03-2c-2.35,0.34-4.42,0.63-6.48,0.93c-0.08-0.1-0.16-0.19-0.23-0.29
	c1-0.71,1.91-1.79,3.01-2.07c3.35-0.84,6.76-1.47,10.17-1.99c2.11-0.32,4.26-0.29,6.41-0.42c0.22-0.43,0.43-0.85,0.78-1.53
	c-2.14,0.16-4.11,0.31-6.1,0.45c1.21-3.04,4.3-4.98,7.79-4.95c2.67,0.02,3.8,0.68,7.95,4.62c6.9-3.89,13.8-7.35,21.53-2.14
	c2.06-7.09,4.1-14.15,6.19-21.34c-3.73,3.28-7.53,6.37-8.45,11.69c-0.21-0.04-0.42-0.09-0.62-0.13c-0.34-1.06-0.68-2.12-1.08-3.38
	c-2.92,1.1-4.4,3.84-6.6,5.94c0-0.38,0-0.68,0-1.02c-1.84,1.19-3.65,2.36-5.47,3.53c-0.17-0.1-0.35-0.2-0.52-0.29
	c0.84-2.25,1.49-4.6,2.59-6.73c1.09-2.11,2.63-4,4.08-6.15c-0.83-0.19-1.47-0.34-2.12-0.49c-0.07-0.14-0.15-0.28-0.22-0.43
	c2.58-1.4,5.16-2.8,7.72-4.19c-0.63-0.16-1.34-0.35-2.05-0.53c-0.06-0.13-0.11-0.25-0.17-0.38c2.89-1.21,5.78-2.42,9.06-3.79
	c-1.68-0.52-3.03-1.07-4.42-1.31c-1.45-0.26-2.95-0.26-4.43-0.31c-1.49-0.05-2.98-0.01-4.6-0.01c0.06-0.37,0.07-0.62,0.13-0.85
	c0.39-1.5,0.16-1.68-1.32-1.47c-3.54,0.51-7.09,0.92-10.63,1.37c-0.05-0.13-0.09-0.26-0.14-0.4c0.38-0.29,0.76-0.58,1.49-1.14
	c-1.88,0.3-3.32,0.53-5.08,0.81c0.53-0.71,0.87-1.15,1.31-1.75c-2.17-0.41-4.25-0.81-6.58-1.25c11.48-3.96,22.9-3.6,34.64-1.39
	c-0.99-1.35-1.85-2.06-3.23-2.22c-1.3-0.16-2.54-0.74-3.96-1.18c0.33-0.47,0.55-0.79,0.96-1.38c-3.23,0.72-6.2,1.39-9.44,2.12
	c0.46-0.66,0.75-1.07,0.99-1.42c-2.16-0.82-4.31-1.65-6.59-2.52c6.69-5.03,13.58-6.21,21.13-2.76
	C70.15-155.07,73.7-152.85,76.94-149.89z M80.4-42.41c28.94-4.73,57.46-3.61,85.9,3.02c0.63-11.24,1.24-22.21,1.87-33.54
	c-3.65,1.82-6.92,3.51-10.23,5.1c-8.34,3.99-16.58,8.2-25.08,11.8c-7.17,3.04-14.66,3.54-22.25,0.91c-8.67-3-17.01-6.68-24.88-11.4
	c-2.46-1.48-4.8-3.15-7.47-4.92C78.99-61.69,79.69-52.18,80.4-42.41z M45.65-96.48c-0.12,0.05-0.23,0.1-0.35,0.15
	c0,0.2-0.01,0.4,0,0.6c0.54,13.59,1.67,27.12,4.7,40.41c1.29,5.66,3.24,11.16,4.96,16.72c0.14,0.47,0.86,1.16,1.19,1.09
	c1.55-0.3,3.06-0.82,4.68-1.3c-2.09-13.59-2.49-27.11-1.76-40.6c-3.02,0.92-5.88,1.79-8.73,2.65c-0.11-0.18-0.22-0.36-0.33-0.54
	c1.96-2.21,3.92-4.43,5.87-6.62c-0.06-0.03-0.25-0.12-0.83-0.4c0.54-0.18,0.93-0.3,1.46-0.48c-1.59-1.94-2.88-3.52-4.31-5.26
	c-0.53,1.12-0.89,1.87-1.35,2.85c-0.74-1.88-1.22-3.56-2.05-5.04C47.93-93.77,46.71-95.08,45.65-96.48z M175.64-37.55
	c0.17-0.51,0.31-0.9,0.43-1.31c3.13-10.64,5.48-21.44,6.6-32.48c0.33-3.29,0.38-6.62,0.43-9.94c0.01-0.52-0.63-1.05-1.18-1.91
	c-0.34,0.95-0.49,1.36-0.66,1.84c-2.54-0.74-4.91-1.97-7.73-1.22c1.43,1.15,2.72,2.19,3.99,3.22c0.67-0.3,1.29-0.58,1.91-0.86
	c0.14,0.12,0.29,0.24,0.43,0.36c-0.55,0.82-1.1,1.64-1.68,2.52c0.51,0.62,1.18,1.42,1.95,2.35c-0.57,0.06-0.9,0.09-1.36,0.14
	c0.8,2.83,2.12,5.48,1.18,8.75c-1.91-2.47-3.67-4.75-5.46-7.07c-0.42,0.59-0.78,1.09-1.41,1.98c-0.14-1.51-0.24-2.59-0.34-3.7
	c-1.09,0.1-1.7,0.46-1.66,1.68c0.28,8.82,0.5,17.64,0.77,26.46c0.08,2.82,0.24,5.64,0.36,8.5C173.4-38,174.44-37.79,175.64-37.55z
	 M195.76-82.12c-0.63-1.02-1.08-1.75-1.63-2.64c-0.77,1.01-1.43,1.88-2.12,2.78c0.72,0.49,1.26,0.87,2.1,1.44c-0.7,0-1,0.02-1.3,0
	c-2.11-0.14-3.25,0.95-3.22,3c0.03,2.99,0.07,5.99-0.01,8.98c-0.3,11.19-1.39,22.3-3.72,33.26c-0.08,0.4,0.12,0.85,0.19,1.28
	c0.35-0.31,0.82-0.56,1.02-0.95c0.78-1.58,1.53-3.18,2.18-4.81c5.8-14.7,8.37-30.12,10.27-45.7c0.24-2,0.42-4.02,0.63-6.03
	c-1.22,1.31-2.24,2.65-2.88,4.14C196.58-85.83,196.31-84.14,195.76-82.12z M183.13-95.72c-0.5,0.13-0.85,0.24-1.21,0.31
	c-2.31,0.46-4.61,0.9-7.11,1.39c0.19-0.44,0.33-0.78,0.51-1.2c-1.64,0-3.13,0-4.62,0c-0.04-0.14-0.09-0.28-0.13-0.43
	c4.02-1.68,8.04-3.35,12.13-5.06c0-0.5,0-1.22,0-1.85c-1.34-0.26-2.53-0.49-4.03-0.78c0.97-0.89,1.64-1.67,2.45-2.22
	c0.98-0.66,1.23-1.43,1.07-2.58c-0.54-3.87-0.98-7.75-1.49-11.62c-0.17-1.26-0.45-2.5-0.68-3.75c-0.1,0.02-0.2,0.03-0.29,0.05
	c-0.21,1.07-0.41,2.14-0.67,3.49c-0.64-0.85-1.09-1.44-1.62-2.14c-0.61,4.45-0.77,8.78-3.07,12.91c-0.38-1.11-0.64-1.89-0.9-2.66
	c-0.53,3.9-1.34,7.59-4.1,10.86c-0.12-1.03-0.21-1.73-0.29-2.43c-1.02,3.29-1.93,6.5-4.62,8.51c1.59,1.43,3.14,2.83,4.73,4.26
	c4.45-1.72,9.05-3.21,13.94-0.86C183.13-92.91,183.13-94.19,183.13-95.72z M70.77-41.06c1.03-0.14,1.71-0.27,2.4-0.31
	c1.1-0.06,1.6-0.48,1.52-1.69c-0.09-1.43,0.06-2.88,0.08-4.33c0.08-7.33-0.04-14.66,0.3-21.98c0.15-3.1-0.13-5.51-3.28-6.78
	c-0.1-0.04-0.2-0.07-0.27-0.1c-0.72,1.23-1.43,2.46-2.22,3.81c-0.32-0.55-0.53-0.91-0.74-1.27c-1.74,1.52-2.61,3.11-2.2,5.51
	c0.8,4.63,1.12,9.34,1.86,13.98C68.91-49.84,69.89-45.52,70.77-41.06z M60.29-93.68c0.38-2.91,0.75-5.74,1.11-8.55
	c-0.91-0.33-1.64-0.59-2.51-0.9c-0.07,0.82-0.11,1.37-0.16,1.98c-3.25-0.36-6.44-1.28-9.77,0.09c2.12,1.23,4.09,2.36,6.32,3.65
	c-0.82,0.2-1.29,0.32-1.77,0.43C55.81-95.99,57.12-93.12,60.29-93.68z M188.8-96.15c0.2,2.57,0.35,4.6,0.52,6.83
	c1.16-0.86,2.08-1.54,3.15-2.33c-0.75-0.05-1.27-0.09-2.24-0.16c2.18-1.58,4.04-2.92,5.9-4.27c-0.03-0.16-0.06-0.31-0.1-0.47
	C193.7-96.42,191.37-96.29,188.8-96.15z M49.54-107.61c0.05,0.22,0.11,0.44,0.16,0.66c4.13,0,8.26,0,12.53,0
	c0.11-0.59,0.25-1.33,0.41-2.18c-0.91,0.18-1.55,0.31-2.2,0.44c0.16,0.36,0.28,0.6,0.51,1.11c-1.31-0.46-2.31-0.8-3.3-1.16
	c-1.05-0.37-2.09-0.76-3.28-1.19c0.11,0.43,0.18,0.73,0.28,1.11c-0.98,0.18-1.88,0.3-2.75,0.51
	C51.09-108.12,50.32-107.85,49.54-107.61z M183.51-85.63c-1.56-2.59-6.58-3.41-8.55-1.63C177.74-86.73,180.49-86.21,183.51-85.63z
	 M188.39-101.34c2.31-0.25,4.53-0.49,6.75-0.74c0.01-0.18,0.01-0.36,0.02-0.54c-1.46-0.19-2.92-0.32-4.37-0.59
	c-0.45-0.08-0.84-0.49-1.57-0.94C187.91-104,187.92-102.87,188.39-101.34z M80.21-74.13c1.27,0.91,2.51,1.8,3.75,2.7
	c0.13-0.13,0.26-0.25,0.39-0.38c-0.9-1.45-1.81-2.9-2.85-4.56C80.93-75.38,80.6-74.8,80.21-74.13z M78.3-80.41
	c-0.24,0.08-0.48,0.16-0.72,0.24c0.8,1.83-0.74,4.53,2.69,5.76C79.55-76.62,78.93-78.51,78.3-80.41z M82.88-147.98
	c-0.03,0.22-0.06,0.45-0.1,0.67c1.81,0.23,3.62,0.46,5.42,0.69c0.02-0.12,0.04-0.24,0.06-0.36
	C86.47-147.31,84.68-147.65,82.88-147.98z M169.5-145.04c-0.02-0.23-0.04-0.46-0.06-0.69c-1.73,0.24-3.46,0.48-5.18,0.72
	c0.02,0.12,0.03,0.23,0.05,0.35C166.03-144.79,167.76-144.92,169.5-145.04z"/>
<text transform="matrix(1 0 0 1 266.8047 -52.4531)" class="st0 st1 st2">Las Mieszkanias</text>
</svg>
